<?xml version="1.0" encoding="utf-8"?>
<!-- Generator: Adobe Illustrator 24.0.0, SVG Export Plug-In . SVG Version: 6.00 Build 0)  -->
<svg version="1.1" id="Layer_1" xmlns="http://www.w3.org/2000/svg" xmlns:xlink="http://www.w3.org/1999/xlink" x="0px" y="0px"
	 viewBox="0 0 373.6 373.6" style="enable-background:new 0 0 373.6 373.6;" xml:space="preserve">
<style type="text/css">
	.st0{fill:#A7A9AC;}
	.st1{fill:none;stroke:#A7A9AC;stroke-width:15.0003;stroke-miterlimit:10.0002;}
</style>
<title>logo</title>
<path class="st0" d="M82.4,105.3c-5.2-3.2-12.1-1.6-15.3,3.6c-3.2,5.2-1.6,12.1,3.6,15.3c5.2,3.2,12.8,2.7,24.9,2.2
	C90.6,115.5,87.6,108.5,82.4,105.3z M94.5,126.7c7.1-9.8,11.7-15.9,11.8-22c0.2-6.1-4.7-11.3-10.8-11.4C89.4,93,84.3,97.9,84.1,104
	C83.9,110.1,88.1,116.5,94.5,126.7z M244.5,77.2c-5.3-3-12.1-1.1-15.2,4.2c-2.9,5.1-1.3,11.5,3.6,14.8c5.2,3.1,12.8,2.7,24.9,2.2
	C252.7,87.4,249.7,80.3,244.5,77.2z M256.7,98.6c7-9.8,11.6-15.9,11.8-22c0.2-6.1-4.6-11.3-10.8-11.5c-6.1-0.2-11.3,4.6-11.5,10.8
	C246,81.9,250.2,88.3,256.7,98.6z M109.5,283.7c2.7-31.4,39.1-52.4,67.6-39c2.7-31.5,38.1-51.5,66.3-38.3
	c2.6-31.4,38.4-52,66.9-38.6c-26.1-33-79.5-58.8-139.9-29.7l-5.1-8.8c-2.7-4.6-8.5-6.2-13.2-3.6c-4.6,2.7-6.2,8.5-3.6,13.2l5.1,8.8
	C98.9,185.7,94,244.8,109.5,283.7z M262.5,308.8l-51.9-75.6l14.8-10.2l51.9,75.6L262.5,308.8z"/>
<rect x="30" y="25.2" class="st1" width="316" height="323.2"/>
</svg>
