<svg height="59" viewBox="0 0 222.2 59" width="222.2" xmlns="http://www.w3.org/2000/svg"><path d="m32.9 0h-11.6v11h11.6v48h14.5v-59z" fill="#3dbeb3"/><path d="m13.6 59h10.9v-11h-10.9v-48h-13.6v59z" fill="#3dbeb3"/><g fill="#5e5b5d" transform="translate(-32 -25.6)"><path d="m99 67.8h-3.2v-3.8h3.2v-7.8c0-2.7.6-4.8 1.8-6.2a6.5 6.5 0 0 1 5.4-2.2 7.6 7.6 0 0 1 2.1.3 9.3 9.3 0 0 1 2 .8l-1.8 3.1a2.5 2.5 0 0 0 -1.9-.7 3.3 3.3 0 0 0 -2.6 1.1 6.4 6.4 0 0 0 -.9 3.8v7.8h6v3.8h-6v14.9h-4.1z"/><path d="m120.6 65.8a9.5 9.5 0 0 1 2.8-1.8 6 6 0 0 1 2.6-.7v4.2a6.5 6.5 0 0 0 -3.7.8 6.3 6.3 0 0 0 -2.6 2.5 6.7 6.7 0 0 0 -.9 3.4v8.5h-4.2v-18.6h3.8l.3 4.4a6.8 6.8 0 0 1 1.9-2.7z"/><path d="m150.1 64.1v18.6h-4.2v-3.1a8.4 8.4 0 0 1 -2.8 2.4 7.9 7.9 0 0 1 -4.3 1.1 10.6 10.6 0 0 1 -4.8-1.1 8.6 8.6 0 0 1 -3.4-3.4 10.5 10.5 0 0 1 -1.2-5.2 10.3 10.3 0 0 1 1.3-5.4 9.5 9.5 0 0 1 3.4-3.5 10.2 10.2 0 0 1 4.9-1.2 7.8 7.8 0 0 1 6.9 3.7l.3-2.9zm-6.3 14.3a5.8 5.8 0 0 0 2.1-3.5v-3.7a5.5 5.5 0 0 0 -2.2-3.2 6.9 6.9 0 0 0 -3.9-1.2 5.5 5.5 0 0 0 -3.1.8 6.1 6.1 0 0 0 -2.3 2.2 7.3 7.3 0 0 0 -.8 3.3 6.3 6.3 0 0 0 .9 3.3 5.9 5.9 0 0 0 2.3 2.4 5.6 5.6 0 0 0 3.1.9 6.5 6.5 0 0 0 3.9-1.3z"/><path d="m185.6 64.8a5.7 5.7 0 0 1 1.7 4.1v13.8h-4.2v-12.3c-.1-2.2-1.1-3.3-3-3.5a5.3 5.3 0 0 0 -2.9 1 7.1 7.1 0 0 0 -2 2.5 8 8 0 0 0 -.7 3.4v8.9h-4.3v-12.3c-.1-2.2-1.1-3.3-3-3.5a5.1 5.1 0 0 0 -2.9 1 6.7 6.7 0 0 0 -2 2.6 7.7 7.7 0 0 0 -.7 3.4v8.8h-4.2v-18.6h3.8l.3 3.5a8.2 8.2 0 0 1 2.9-3.2 8.9 8.9 0 0 1 4.3-1.1 6.5 6.5 0 0 1 3.8 1 5 5 0 0 1 2 2.9 8.1 8.1 0 0 1 2.9-2.9 7.6 7.6 0 0 1 3.9-1 6.1 6.1 0 0 1 4.3 1.5z"/><path d="m207.8 77.9 1.9 3.1a10.7 10.7 0 0 1 -3.2 1.6 12.6 12.6 0 0 1 -3.3.5 10.9 10.9 0 0 1 -5.5-1.3 8.4 8.4 0 0 1 -3.5-3.5 10.1 10.1 0 0 1 .1-10.1 10.1 10.1 0 0 1 9-4.9 9.2 9.2 0 0 1 6.1 2.1 11.3 11.3 0 0 1 3.3 6l-14.7 5.2a5.3 5.3 0 0 0 2.1 2.1 5.7 5.7 0 0 0 3.2.8 7.5 7.5 0 0 0 4.5-1.6zm-9.1-9.5a6.5 6.5 0 0 0 -1.6 4.6v1l10.8-4a5 5 0 0 0 -1.9-2.4 4.5 4.5 0 0 0 -3.1-1 5.4 5.4 0 0 0 -4.2 1.8z"/><path d="m225.1 71.2v3.7h-8.4v-3.7z"/><path d="m232.1 55.7a2.3 2.3 0 0 1 1.7-.7 2.1 2.1 0 0 1 1.7.7 2.1 2.1 0 0 1 .8 1.6 2.1 2.1 0 0 1 -.8 1.7 2.1 2.1 0 0 1 -1.7.7 2.3 2.3 0 0 1 -1.7-.7 2.1 2.1 0 0 1 -.8-1.7 2.1 2.1 0 0 1 .8-1.6zm3.7 8.4v18.6h-4.2v-18.6z"/><path d="m249.1 55.9v8.2h5.1v3.3h-5.1v15.3h-4.2v-15.3h-3.4v-3.3h3.4v-8.2z"/></g><g fill="#3dbeb3"><path d="m211.9 38.5h-4.3v3.5h4.3v15.3h5.4v-18.8z"/><path d="m204.6 57.3h4.3v-3.5l-4.3-.1.1-15.4h-5.4l-.1 18.9z"/></g></svg>