<svg xmlns="http://www.w3.org/2000/svg" width="256" height="256" viewBox="0 0 256 256"><path fill="#fff" d="M219.6 233.4H40.5V54.2h179.1zm-54-75.9c6.3-1.2 9.2-3.8 8.3-8.7s1.3-6.7 5.3-8.3 6.8-5.7 4.2-10.8c-1.7-3.6-1-5.6 1.8-8.1 4.4-3.8 4.6-7.3.4-11s-4.8-6.8-2.5-11.6 1-9.3-5.2-11.3c-4-1.3-5.5-3.4-5.3-7.7.2-6.4-3-9.6-9.3-8.7-4.4.6-6-1.3-7.4-4.8-2.3-5.9-5.8-7.4-11.6-4.6-3.1 1.4-4.9 1-7.1-1.5-4-4.5-8.3-5-12.2-.6s-7 4.2-11.7 2.1-8.7-.7-10.5 4.8-3.7 6.1-8.4 6c-6.4-.1-8.7 2.9-8.5 9.3 0 .8.3 1.7 0 2.3s-1.2 3-2.2 3.6c-10 5-10.3 5.6-6.2 16a9 9 0 0 1 .2 1.3l-1.6 1.3c-6.5 6.3-6.7 8.5-.1 14.9 3.1 3.1 2.2 5.6 1 8.8-2.9 7.3-1.7 10 5.7 12.7 3 1 4.7 2.5 4.4 5.8-.4 4.9.8 8.9 6.2 10.5-4 14.1-7.9 27.8-11.9 41.5-1.6 5.6-3.3 11.2-4.7 16.9-.3 1.3.5 3 .7 4.6a38.9 38.9 0 0 0 4.1-1.6 24.4 24.4 0 0 0 2.9-2.7l12.2-12.1c.5 1.9.8 3.5 1.2 5 1.1 5.2 2.2 10.4 3.5 15.5.4 1.3 1.8 2.3 2.7 3.5 1-1.1 2-2.1 2.9-3.2a3.8 3.8 0 0 0 .5-1.5c3.2-11.1 6.3-22.2 9.5-33.2 2-7 4.1-13.9 6.3-21.4 4.7 4.2 8.7 2.5 12.6-1.1.4 1.3.7 2.1 1 3 5.1 17.8 10.1 35.7 15.3 53.4.5 1.5 2.1 2.7 3.2 4 .9-1.4 2.4-2.7 2.8-4.2 1.6-6.5 3-13 4.5-19.9 5.3 5.2 10.1 10.1 15.1 14.8 1.1.9 2.9 1 4.4 1.5.2-1.5.9-3 .5-4.4-1.7-6.8-3.8-13.5-5.7-20.2-3.7-13.2-7.5-26.4-11.3-39.9z"/><path fill="#58585a" d="M165.6 157.5c3.8 13.5 7.6 26.7 11.3 39.9 1.9 6.7 4 13.4 5.7 20.2.4 1.4-.3 2.9-.5 4.4-1.5-.5-3.3-.6-4.4-1.5-5-4.7-9.8-9.6-15.1-14.8-1.5 6.9-2.9 13.4-4.5 19.9-.4 1.5-1.9 2.8-2.8 4.2-1.1-1.3-2.7-2.5-3.2-4-5.2-17.7-10.2-35.6-15.3-53.4-.3-.9-.6-1.7-1-3-3.9 3.6-7.9 5.3-12.6 1.1-2.2 7.5-4.3 14.4-6.3 21.4-3.2 11-6.3 22.1-9.5 33.2a3.8 3.8 0 0 1-.5 1.5c-.9 1.1-1.9 2.1-2.9 3.2-.9-1.2-2.3-2.2-2.7-3.5-1.3-5.1-2.4-10.3-3.5-15.5-.4-1.5-.7-3.1-1.2-5l-12.2 12.1a24.4 24.4 0 0 1-2.9 2.7 38.9 38.9 0 0 1-4.1 1.6c-.2-1.6-1-3.3-.7-4.6 1.4-5.7 3.1-11.3 4.7-16.9 4-13.7 7.9-27.4 11.9-41.5-5.4-1.6-6.6-5.6-6.2-10.5.3-3.3-1.4-4.8-4.4-5.8-7.4-2.7-8.6-5.4-5.7-12.7 1.2-3.2 2.1-5.7-1-8.8-6.6-6.4-6.4-8.6.1-14.9l1.6-1.3a9 9 0 0 0-.2-1.3c-4.1-10.4-3.8-11 6.2-16 1-.6 1.6-2.3 2.2-3.6s0-1.5 0-2.3c-.2-6.4 2.1-9.4 8.5-9.3 4.7.1 7-1.5 8.4-6s5.3-7.1 10.5-4.8 8 2 11.7-2.1 8.2-3.9 12.2.6c2.2 2.5 4 2.9 7.1 1.5 5.8-2.8 9.3-1.3 11.6 4.6 1.4 3.5 3 5.4 7.4 4.8 6.3-.9 9.5 2.3 9.3 8.7-.2 4.3 1.3 6.4 5.3 7.7 6.2 2 7.8 5.4 5.2 11.3s-1.4 8.1 2.5 11.6 4 7.2-.4 11c-2.8 2.5-3.5 4.5-1.8 8.1 2.6 5.1 1.1 8.7-4.2 10.8s-6.2 3.3-5.3 8.3-2 7.5-8.3 8.7zM81 136.1c1.3.8 2.5 2 3.9 2.3 6.1 1.3 8.4 4.8 8 11s.2 5.2 5.5 5c7.7-.4 6.6-1.2 9.7 6.2 2.1 5.1 2.3 5.4 7.4 2.8s6.9-1.8 10 1.8 4 4.2 7.5.1 8-6 13.3-2.7h.4c3.7 2.5 5.8 1 6.7-2.9 1.2-5.6 4.4-7.6 10.2-7.2s5.5 0 5.3-5.9-.2-6.7 5.9-9.2 6-2.5 3.2-7.8-1.6-6.6 1.8-9.5 4.3-4.1 0-8.1-5.7-5.3-2.7-12.6l.3-.8c2-3.4 1.5-5.8-2.6-6.6-6.3-1.2-8.2-5.2-7.6-11.1a4.8 4.8 0 0 1 0-1.2c.2-2.6-1-3.9-3.5-3.3-7 1.4-11.1-1.3-12.5-8.2V68c-.8-2.3-2.3-3-4.3-1.7-5.6 3.8-10.2 3-13.9-2.8-1.2-1.9-2.7-1.6-4.2-.1a31.9 31.9 0 0 0-2.6 2.6c-3.2 4.3-7 4.9-11.5 2-.2-.2-.5-.2-.8-.3-5.2-2.2-5.6-2.4-7.2 3.1s-4.4 7.3-9.8 7.1-6.1.3-5.5 6.5c.4 4.4-.7 7-5.2 8.6-7 2.5-6.9 1.8-3.6 9.2 1 2.3 1.9 4.3-.5 6.7-6.1 5.8-6 5.9.3 11.6l.6.5c2.4 1.8 2.8 3.9 1.5 6.6s-2.1 5.2-3.5 8.5zm23.4 80h.8c4.7-15.9 9.4-31.8 14.3-48.2l-5.1 1.9c-4.1 1.5-7.3.3-9.3-3.5-.7-1.3-1.1-2.8-1.8-4a20.9 20.9 0 0 0-2.4-2.8 11.8 11.8 0 0 0-2.3 3.2c-3.7 12.5-7.3 25.1-11 37.6-.9 3.3-1.8 6.7-2.8 10.6 3.8-3.7 6.9-6.9 10.3-9.9 1.1-1 3.1-2.4 4.1-2s2 2.5 2.4 4.1c1.1 4.3 1.9 8.7 2.8 13zm36.5-48.7l14 48.8c1.8-4.8 2.6-9.5 3.8-14.1.4-1.3 1.3-3 2.4-3.5s2.6.9 3.5 1.8c3.4 3.2 6.6 6.6 9.9 9.8l.7-.4c-4.9-17.1-9.9-34.1-14.8-51.2-2.5 3.6-4.2 8.4-7.4 9.8s-7.8-.5-12.1-1z"/><path fill="none" d="M81 136.1c1.4-3.3 2.2-6 3.4-8.5s.9-4.8-1.5-6.6l-.6-.5c-6.3-5.7-6.4-5.8-.3-11.6 2.4-2.4 1.5-4.4.5-6.7-3.3-7.4-3.4-6.7 3.6-9.2 4.5-1.6 5.6-4.2 5.2-8.6-.6-6.2-.4-6.6 5.5-6.5s8.3-1.7 9.8-7.1 2-5.3 7.2-3.1c.3.1.6.1.8.3 4.5 2.9 8.3 2.3 11.5-2a31.9 31.9 0 0 1 2.6-2.6c1.5-1.5 3-1.8 4.2.1 3.7 5.8 8.3 6.6 13.9 2.8 2-1.3 3.5-.6 4.3 1.7v.3c1.4 6.9 5.5 9.6 12.5 8.2 2.5-.6 3.7.7 3.5 3.3a4.8 4.8 0 0 0 0 1.2c-.6 5.9 1.3 9.9 7.6 11.1 4.1.8 4.6 3.2 2.6 6.6l-.3.8c-3 7.3-3 7.3 2.7 12.6s4.5 4.3 0 8.1-3.9 5.5-1.8 9.5 2.5 5.5-3.2 7.8-6.1 2.5-5.9 9.2.2 6.4-5.3 5.9-9 1.6-10.2 7.2c-.9 3.9-3 5.4-6.7 2.9h-.4c-5.3-3.3-9.4-1.9-13.3 2.7s-4.1 4.1-7.5-.1-5.9-3.9-10-1.8-5.3 2.3-7.4-2.8c-3.1-7.4-2-6.6-9.7-6.2-5.3.2-5.8.2-5.5-5s-1.9-9.7-8-11c-1.3-.4-2.5-1.6-3.8-2.4zm48.9 17a37.6 37.6 0 0 0 38-37.3c.1-21-16.6-38.3-37.3-38.6a38 38 0 1 0-.7 75.9z"/><path fill="#fff" d="M104.4 216.1c-.9-4.3-1.7-8.7-2.8-13-.4-1.6-1.2-3.7-2.4-4.1s-3 1-4.1 2c-3.4 3-6.5 6.2-10.3 9.9 1-3.9 1.9-7.3 2.8-10.6 3.7-12.5 7.3-25.1 11-37.6a11.8 11.8 0 0 1 2.3-3.2 20.9 20.9 0 0 1 2.4 2.8c.7 1.2 1.1 2.7 1.8 4 2 3.8 5.2 5 9.3 3.5l5.1-1.9c-4.9 16.4-9.6 32.3-14.3 48.2zm36.5-48.7c4.3.5 8.9 2.5 12.1 1s4.9-6.2 7.4-9.8c4.9 17.1 9.9 34.1 14.8 51.2l-.7.4c-3.3-3.2-6.5-6.6-9.9-9.8-.9-.9-2.7-2.2-3.5-1.8s-2 2.2-2.4 3.5c-1.2 4.6-2 9.3-3.8 14.1z"/><path fill="#58595b" d="M129.9 153.1a38 38 0 1 1 .7-75.9c20.7.3 37.4 17.6 37.3 38.6a37.6 37.6 0 0 1-38 37.3zm-.1-5c17.8.1 32.8-14.9 33-32.9s-14.9-32.8-32.6-32.9-32.7 14.9-33 32.6 14.8 33.1 32.6 33.2z"/><circle cx="62.3" cy="172.2" r="9.7" fill="#58585a"/><circle cx="38.5" cy="113" r="9.7" fill="#58585a"/><circle cx="58.8" cy="50.7" r="9.7" fill="#58585a"/><circle cx="124.5" cy="27" r="9.7" fill="#58585a"/><circle cx="191.6" cy="50.7" r="9.7" fill="#58585a"/><circle cx="217" cy="113" r="9.7" fill="#58585a"/><circle cx="202.3" cy="173.4" r="9.7" fill="#58585a"/></svg>